<svg xmlns="http://www.w3.org/2000/svg" version="1.1" xmlns:xlink="http://www.w3.org/1999/xlink" xmlns:svgjs="http://svgjs.dev/svgjs" width="61.14" height="55.36"><svg id="SvgjsSvg1013" xmlns="http://www.w3.org/2000/svg" viewBox="0 0 61.14 55.36"><rect x="2.95" y="-2.95" width="54.95" height="60.85" rx="13.9" ry="13.9" transform="translate(57.9 -2.95) rotate(90)" fill="#f3f3f3"></rect><g><path d="M46.77,44.72c2.26,0,4.09-1.83,4.09-4.09V20.21c0-2.26-1.83-4.09-4.09-4.09H30.63c-1.39,.01-2.69-.68-3.45-1.84l-1.65-2.45c-.76-1.15-2.04-1.84-3.41-1.84H14.09c-2.26,0-4.09,1.83-4.09,4.09v26.55c0,2.26,1.83,4.09,4.09,4.09" fill="none" stroke="#2c3538" stroke-linecap="round" stroke-linejoin="round" stroke-width="4"></path><line x1="50.85" y1="27.48" x2="30.43" y2="27.48" fill="none" stroke="#2c3538" stroke-linecap="round" stroke-linejoin="round" stroke-width="4"></line><line x1="10" y1="27.48" x2="20.21" y2="27.48" fill="none" stroke="#2c3538" stroke-linecap="round" stroke-linejoin="round" stroke-width="4"></line></g></svg><style>@media (prefers-color-scheme: light) { :root { filter: none; } }
@media (prefers-color-scheme: dark) { :root { filter: none; } }
</style></svg>