<?xml version="1.0" encoding="UTF-8"?><svg id="_32" xmlns="http://www.w3.org/2000/svg" xmlns:xlink="http://www.w3.org/1999/xlink" viewBox="0 0 32 32"><defs><style>.cls-1{fill:url(#linear-gradient-2);}.cls-2{fill:none;}.cls-3{fill:url(#linear-gradient-4);}.cls-4{fill:url(#linear-gradient-3);}.cls-5{fill:url(#linear-gradient-5);}.cls-6{fill:url(#linear-gradient);}.cls-7{clip-path:url(#clippath);}</style><linearGradient id="linear-gradient" x1="23" y1="27" x2="24" y2="26" gradientUnits="userSpaceOnUse"><stop offset="0" stop-color="#000" stop-opacity=".1"/><stop offset="1" stop-color="#000" stop-opacity="0"/></linearGradient><linearGradient id="linear-gradient-2" x1="2.88" y1="18.16" x2="23.23" y2="13.29" gradientUnits="userSpaceOnUse"><stop offset=".27" stop-color="#eac562"/><stop offset=".59" stop-color="#f3d373"/><stop offset="1" stop-color="#fee286"/></linearGradient><clipPath id="clippath"><path id="mask" class="cls-2" d="M0,0v32h32V0H0ZM11,23l-1,2v6l-5-4V4l6,5v14Z"/></clipPath><linearGradient id="linear-gradient-3" x1="10" y1="31" x2="11" y2="30" xlink:href="#linear-gradient"/><linearGradient id="linear-gradient-4" x1="10.22" y1="29.17" x2="5.62" y2="6" gradientUnits="userSpaceOnUse"><stop offset="0" stop-color="#ffe189"/><stop offset=".89" stop-color="#ffeaa5"/></linearGradient><linearGradient id="linear-gradient-5" x1="8" y1="31" x2="8" y2="4" gradientUnits="userSpaceOnUse"><stop offset="0" stop-color="#fff" stop-opacity="0"/><stop offset=".21" stop-color="#fff" stop-opacity=".05"/><stop offset=".59" stop-color="#fff" stop-opacity=".19"/><stop offset=".85" stop-color="#fff" stop-opacity=".3"/><stop offset=".95" stop-color="#fff" stop-opacity="0"/></linearGradient></defs><polygon id="back-shadow" class="cls-6" points="23 25 23 27 25 27 23 25"/><polygon id="back" class="cls-1" points="5 4 21 4 21 17.5 23 19.5 23 27 5 27 5 4"/><g id="icon"><g class="cls-7"><image id="icon-src" width="16" height="16" transform="translate(13 13)" xlink:href="../../../../../Downloads/16.png"/></g></g><polygon id="front-shadow" class="cls-4" points="10 29 10 31 12 31 10 29"/><polygon id="front" class="cls-3" points="5 4 11 9 11 23 10 25 10 31 5 27 5 4"/><polygon id="highlight" class="cls-5" points="5 4 6 6.14 10 9.47 10 22.76 9.11 24.55 9 24.76 9 25 9 30.2 10 31 10 25 11 23 11 9 5 4"/></svg>