<?xml version="1.0" encoding="UTF-8"?><svg id="_256" xmlns="http://www.w3.org/2000/svg" xmlns:xlink="http://www.w3.org/1999/xlink" viewBox="0 0 256 256"><defs><style>.cls-1{fill:url(#linear-gradient-2);}.cls-2{fill:none;}.cls-3{fill:url(#linear-gradient-4);}.cls-4{fill:url(#linear-gradient-3);}.cls-5{fill:url(#linear-gradient-5);}.cls-6{fill:url(#linear-gradient);}.cls-7{clip-path:url(#clippath);}</style><linearGradient id="linear-gradient" x1="215.75" y1="221.75" x2="27.32" y2="33.32" gradientUnits="userSpaceOnUse"><stop offset="0" stop-color="#dfa32d"/><stop offset=".99" stop-color="#ffbf17"/></linearGradient><linearGradient id="linear-gradient-2" x1="67.21" y1="87" x2="67.21" y2="62" gradientUnits="userSpaceOnUse"><stop offset=".5" stop-color="#080808" stop-opacity=".16"/><stop offset="1" stop-color="#080808" stop-opacity="0"/></linearGradient><linearGradient id="linear-gradient-3" x1="16" y1="74.5" x2="28" y2="74.5" gradientUnits="userSpaceOnUse"><stop offset="0" stop-color="#febe18" stop-opacity=".75"/><stop offset="1" stop-color="#febe18" stop-opacity="0"/></linearGradient><linearGradient id="linear-gradient-4" x1="176.12" y1="232.66" x2="84.61" y2="45.04" gradientUnits="userSpaceOnUse"><stop offset="0" stop-color="#ffc935"/><stop offset="1" stop-color="#ffe69b"/></linearGradient><clipPath id="clippath"><path id="Front-2" class="cls-2" d="M228,62h-109.57c-1.92,0-3.78.68-5.23,1.95-3.89,3.4-12.87,10.05-23.57,10.05H28c-6.63,0-12,5.37-12,12v108c0,6.63,5.37,12,12,12h200c6.63,0,12-5.37,12-12v-120c0-6.63-5.37-12-12-12Z"/></clipPath><linearGradient id="linear-gradient-5" x1="16" y1="76" x2="240" y2="76" gradientUnits="userSpaceOnUse"><stop offset="0" stop-color="#fff" stop-opacity=".3"/><stop offset=".04" stop-color="#fff" stop-opacity=".28"/><stop offset=".46" stop-color="#fff" stop-opacity=".13"/><stop offset=".79" stop-color="#fff" stop-opacity=".04"/><stop offset="1" stop-color="#fff" stop-opacity="0"/></linearGradient></defs><path id="Back" class="cls-6" d="M28,210h200c6.63,0,12-5.37,12-12V70c0-6.63-5.37-12-12-12h-112l-13.1-15.72c-4.37-5.24-10.84-8.28-17.67-8.28H28c-6.63,0-12,5.37-12,12v152c0,6.63,5.37,12,12,12Z"/><rect id="Shadow" class="cls-1" x="16" y="62" width="102.43" height="25"/><rect id="Mask" class="cls-4" x="16" y="62" width="12" height="25"/><path id="Front" class="cls-3" d="M228,62h-109.57c-1.92,0-3.78.68-5.23,1.95-3.89,3.4-12.87,10.05-23.57,10.05H28c-6.63,0-12,5.37-12,12v108c0,6.63,5.37,12,12,12h200c6.63,0,12-5.37,12-12v-120c0-6.63-5.37-12-12-12Z"/><g id="Clip"><g class="cls-7"><image id="Icon" width="132" height="132" transform="translate(62 70)" xlink:href="../icon-sizes/132.png"/></g></g><path id="Highlight" class="cls-5" d="M228,62h-109.57c-1.92,0-3.78.68-5.23,1.95-3.89,3.4-12.87,10.05-23.57,10.05H28c-6.63,0-12,5.37-12,12v4c0-6.63,5.37-12,12-12h61.62c13.15,0,23.71-8.67,27.27-12h111.1c6.63,0,12,5.37,12,12v-4c0-6.63-5.37-12-12-12Z"/></svg>