<?xml version="1.0" encoding="UTF-8"?><svg id="_32" xmlns="http://www.w3.org/2000/svg" xmlns:xlink="http://www.w3.org/1999/xlink" viewBox="0 0 32 32"><defs><style>.cls-1{fill:url(#linear-gradient-2);}.cls-2{fill:none;}.cls-3{fill:url(#linear-gradient-4);}.cls-4{fill:url(#linear-gradient-3);}.cls-5{fill:url(#linear-gradient-5);}.cls-6{fill:url(#linear-gradient);}.cls-7{clip-path:url(#clippath);}</style><linearGradient id="linear-gradient" x1="27.11" y1="27.61" x2="3.27" y2="3.77" gradientUnits="userSpaceOnUse"><stop offset="0" stop-color="#dfa32d"/><stop offset=".99" stop-color="#ffbf17"/></linearGradient><linearGradient id="linear-gradient-2" x1="16" y1="13" x2="16" y2="7" gradientUnits="userSpaceOnUse"><stop offset=".5" stop-color="#080808" stop-opacity=".16"/><stop offset="1" stop-color="#080808" stop-opacity="0"/></linearGradient><linearGradient id="linear-gradient-3" x1="2" y1="10" x2="4" y2="10" gradientUnits="userSpaceOnUse"><stop offset="0" stop-color="#febe18" stop-opacity=".75"/><stop offset="1" stop-color="#febe18" stop-opacity="0"/></linearGradient><linearGradient id="linear-gradient-4" x1="21.89" y1="28.58" x2="10.9" y2="6.04" gradientUnits="userSpaceOnUse"><stop offset="0" stop-color="#ffc935"/><stop offset="1" stop-color="#ffe69b"/></linearGradient><clipPath id="clippath"><path id="Front-2" class="cls-2" d="M29,8h-14s-1,2-3.5,2H3c-.55,0-1,.45-1,1v13c0,.55.45,1,1,1h26c.55,0,1-.45,1-1v-15c0-.55-.45-1-1-1Z"/></clipPath><linearGradient id="linear-gradient-5" x1="18.54" y1="15.59" x2="13.31" y2="4.86" gradientUnits="userSpaceOnUse"><stop offset="0" stop-color="#fff" stop-opacity="0"/><stop offset=".21" stop-color="#fff" stop-opacity=".04"/><stop offset=".54" stop-color="#fff" stop-opacity=".13"/><stop offset=".96" stop-color="#fff" stop-opacity=".28"/><stop offset="1" stop-color="#fff" stop-opacity=".3"/></linearGradient></defs><path id="Back" class="cls-6" d="M30,25V8c0-.55-.45-1-1-1h-14.5s-2.41-2.41-2.41-2.41c-.38-.38-.88-.59-1.41-.59H3c-.55,0-1,.45-1,1v20c0,.55.45,1,1,1h26c.55,0,1-.45,1-1Z"/><path id="Shadow" class="cls-1" d="M2,7v6h28v-5c0-.55-.45-1-1-1H2Z"/><rect id="Mask" class="cls-4" x="2" y="7" width="2" height="6"/><path id="Front" class="cls-3" d="M29,8h-14s-1,2-3.5,2H3c-.55,0-1,.45-1,1v13c0,.55.45,1,1,1h26c.55,0,1-.45,1-1v-15c0-.55-.45-1-1-1Z"/><g id="Clip"><g class="cls-7"><image id="Icon" width="16" height="16" transform="translate(8 9)" xlink:href="../icon-sizes/16.png"/></g></g><path id="Highlight" class="cls-5" d="M29,8h-14s-1,2-3.5,2H3c-.55,0-1,.45-1,1v1c0-.55.45-1,1-1h8.5c2.2,0,3.47-1.25,4.04-2h13.46c.55,0,1,.45,1,1v-1c0-.55-.45-1-1-1Z"/></svg>