<svg xmlns="http://www.w3.org/2000/svg" version="1.1" xmlns:xlink="http://www.w3.org/1999/xlink" width="180" height="180"><svg id="SvgjsSvg1008" xmlns="http://www.w3.org/2000/svg" viewBox="0 0 180 180"><rect width="180" height="180" rx="35" ry="35" fill="#fff"></rect><path d="M90.29,52.43v24.96h46.91c1.66,0,3,1.34,3,3v18.96c0,1.66-1.34,3-3,3h-46.91v21.96c0,1.66,1.34,3,3,3h43.91c1.66,0,3,1.34,3,3v21.96h14.96c5.52,0,10-4.48,10-10V62.43c0-5.52-4.48-10-10-10H90.29Z" fill="#1a1a1a"></path><path d="M40.38,74.38v-18.95c0-1.66,1.34-3,3-3h46.91l-22.03-22.03c-1.88-1.88-4.42-2.93-7.07-2.93H25.42c-5.52,0-10,4.48-10,10v104.78c0,5.52,4.48,10,10,10h14.96v-46.91c0-1.66,1.34-3,3-3h46.91v-24.96H43.38c-1.66,0-3-1.34-3-3Z" fill="#1a1a1a"></path></svg><style>@media (prefers-color-scheme: light) { :root { filter: none; } }
@media (prefers-color-scheme: dark) { :root { filter: none; } }
</style></svg>